HIERARCHY
ROOT Hips
{
	OFFSET 63.676220 98.576553 21.556807
	CHANNELS 6 Xposition Yposition Zposition Xrotation Yrotation Zrotation
	JOINT LeftUpLeg
	{
		OFFSET 8.910000 -6.269997 0.000000
		CHANNELS 6 Xposition Yposition Zposition Xrotation Yrotation Zrotation
		JOINT LeftLeg
		{
			OFFSET -0.070457 -44.094959 -8.350026
			CHANNELS 6 Xposition Yposition Zposition Xrotation Yrotation Zrotation
			JOINT LeftFoot
			{
				OFFSET -0.063889 -39.979401 -7.629657
				CHANNELS 6 Xposition Yposition Zposition Xrotation Yrotation Zrotation
				JOINT LeftToeBase
				{
					OFFSET 0.000008 -6.262319 12.954721
					CHANNELS 6 Xposition Yposition Zposition Xrotation Yrotation Zrotation
					JOINT LeftToeBaseEnd
					{
						OFFSET 0.000000 0.000000 8.000000
						CHANNELS 6 Xposition Yposition Zposition Xrotation Yrotation Zrotation
						End Site
						{
							OFFSET 0.000000 8.000001 0.000000
						}
					}
				}
			}
		}
	}
	JOINT RightUpLeg
	{
		OFFSET -8.910000 -6.269997 0.000000
		CHANNELS 6 Xposition Yposition Zposition Xrotation Yrotation Zrotation
		JOINT RightLeg
		{
			OFFSET -2.287071 -44.300735 -6.804920
			CHANNELS 6 Xposition Yposition Zposition Xrotation Yrotation Zrotation
			JOINT RightFoot
			{
				OFFSET -2.070187 -40.021637 -7.109919
				CHANNELS 6 Xposition Yposition Zposition Xrotation Yrotation Zrotation
				JOINT RightToeBase
				{
					OFFSET -0.001083 -6.262318 12.954752
					CHANNELS 6 Xposition Yposition Zposition Xrotation Yrotation Zrotation
					JOINT RightToeBaseEnd
					{
						OFFSET -0.000671 -0.000407 8.000002
						CHANNELS 6 Xposition Yposition Zposition Xrotation Yrotation Zrotation
						End Site
						{
							OFFSET 0.000000 8.000001 0.000406
						}
					}
				}
			}
		}
	}
	JOINT Spine
	{
		OFFSET 0.000000 7.000000 0.000000
		CHANNELS 6 Xposition Yposition Zposition Xrotation Yrotation Zrotation
		JOINT Spine1
		{
			OFFSET 0.667820 12.296143 -2.967037
			CHANNELS 3 Xrotation Yrotation Zrotation
			JOINT Spine2
			{
				OFFSET 0.339264 12.572098 -1.507305
				CHANNELS 3 Xrotation Yrotation Zrotation
				JOINT LeftShoulder
				{
					OFFSET 7.006538 14.251984 -0.029060
					CHANNELS 6 Xposition Yposition Zposition Xrotation Yrotation Zrotation
					JOINT LeftArm
					{
						OFFSET 10.707253 -0.004776 0.000004
						CHANNELS 6 Xposition Yposition Zposition Xrotation Yrotation Zrotation
						JOINT LeftForeArm
						{
							OFFSET 27.283127 -0.771774 0.789974
							CHANNELS 6 Xposition Yposition Zposition Xrotation Yrotation Zrotation
							JOINT LeftHand
							{
								OFFSET 26.675308 -0.754562 0.772364
								CHANNELS 6 Xposition Yposition Zposition Xrotation Yrotation Zrotation
								JOINT LeftHandThumb1
								{
									OFFSET 4.348770 -0.798492 4.282434
									CHANNELS 6 Xposition Yposition Zposition Xrotation Yrotation Zrotation
									JOINT LeftHandThumb2
									{
										OFFSET 2.512589 -0.536102 0.707455
										CHANNELS 6 Xposition Yposition Zposition Xrotation Yrotation Zrotation
										JOINT LeftHandThumb3
										{
											OFFSET 2.543137 0.000000 0.000010
											CHANNELS 6 Xposition Yposition Zposition Xrotation Yrotation Zrotation
											JOINT LeftHandThumb4
											{
												OFFSET 2.666748 0.000015 -0.000008
												CHANNELS 6 Xposition Yposition Zposition Xrotation Yrotation Zrotation
												End Site
												{
													OFFSET -0.000015 2.666748 0.000000
												}
											}
										}
									}
								}
								JOINT LeftHandIndex1
								{
									OFFSET 8.821976 0.199738 3.471670
									CHANNELS 6 Xposition Yposition Zposition Xrotation Yrotation Zrotation
									JOINT LeftHandIndex2
									{
										OFFSET 4.225327 0.000000 -0.000263
										CHANNELS 6 Xposition Yposition Zposition Xrotation Yrotation Zrotation
										JOINT LeftHandIndex3
										{
											OFFSET 2.652328 0.000000 -0.092787
											CHANNELS 6 Xposition Yposition Zposition Xrotation Yrotation Zrotation
											JOINT LeftHandIndex4
											{
												OFFSET 1.953445 0.000000 -0.136721
												CHANNELS 6 Xposition Yposition Zposition Xrotation Yrotation Zrotation
												End Site
												{
													OFFSET -0.000015 1.958221 0.000002
												}
											}
										}
									}
								}
								JOINT LeftHandMiddle1
								{
									OFFSET 8.809891 0.500900 1.304684
									CHANNELS 6 Xposition Yposition Zposition Xrotation Yrotation Zrotation
									JOINT LeftHandMiddle2
									{
										OFFSET 4.863251 0.000000 0.000000
										CHANNELS 6 Xposition Yposition Zposition Xrotation Yrotation Zrotation
										JOINT LeftHandMiddle3
										{
											OFFSET 2.765244 0.000000 -0.000172
											CHANNELS 6 Xposition Yposition Zposition Xrotation Yrotation Zrotation
											JOINT LeftHandMiddle4
											{
												OFFSET 2.005630 0.000000 -0.000250
												CHANNELS 6 Xposition Yposition Zposition Xrotation Yrotation Zrotation
												End Site
												{
													OFFSET 0.000000 2.005630 0.000000
												}
											}
										}
									}
								}
								JOINT LeftHandRing1
								{
									OFFSET 8.893768 0.379929 -0.793159
									CHANNELS 6 Xposition Yposition Zposition Xrotation Yrotation Zrotation
									JOINT LeftHandRing2
									{
										OFFSET 4.537766 0.000000 -0.000282
										CHANNELS 6 Xposition Yposition Zposition Xrotation Yrotation Zrotation
										JOINT LeftHandRing3
										{
											OFFSET 2.304535 0.000000 -0.000286
											CHANNELS 6 Xposition Yposition Zposition Xrotation Yrotation Zrotation
											JOINT LeftHandRing4
											{
												OFFSET 1.923355 0.000000 -0.000360
												CHANNELS 6 Xposition Yposition Zposition Xrotation Yrotation Zrotation
												End Site
												{
													OFFSET 0.000000 1.923340 0.000000
												}
											}
										}
									}
								}
								JOINT LeftHandPinky1
								{
									OFFSET 8.882278 -0.313019 -2.490356
									CHANNELS 6 Xposition Yposition Zposition Xrotation Yrotation Zrotation
									JOINT LeftHandPinky2
									{
										OFFSET 3.044098 0.000000 0.000000
										CHANNELS 6 Xposition Yposition Zposition Xrotation Yrotation Zrotation
										JOINT LeftHandPinky3
										{
											OFFSET 1.974503 -0.000031 0.000000
											CHANNELS 6 Xposition Yposition Zposition Xrotation Yrotation Zrotation
											JOINT LeftHandPinky4
											{
												OFFSET 1.666611 -0.000046 0.000000
												CHANNELS 6 Xposition Yposition Zposition Xrotation Yrotation Zrotation
												End Site
												{
													OFFSET 0.000061 1.666611 0.000000
												}
											}
										}
									}
								}
							}
						}
					}
				}
				JOINT RightShoulder
				{
					OFFSET -6.993458 14.258392 -0.029066
					CHANNELS 6 Xposition Yposition Zposition Xrotation Yrotation Zrotation
					JOINT RightArm
					{
						OFFSET -10.707275 0.005341 -0.000006
						CHANNELS 6 Xposition Yposition Zposition Xrotation Yrotation Zrotation
						JOINT RightForeArm
						{
							OFFSET -27.240664 -1.850800 0.341349
							CHANNELS 6 Xposition Yposition Zposition Xrotation Yrotation Zrotation
							JOINT RightHand
							{
								OFFSET -26.633043 -1.809418 0.369396
								CHANNELS 6 Xposition Yposition Zposition Xrotation Yrotation Zrotation
								JOINT RightHandThumb1
								{
									OFFSET -4.348381 -0.798508 4.282814
									CHANNELS 6 Xposition Yposition Zposition Xrotation Yrotation Zrotation
									JOINT RightHandThumb2
									{
										OFFSET -2.512527 -0.536087 0.707676
										CHANNELS 6 Xposition Yposition Zposition Xrotation Yrotation Zrotation
										JOINT RightHandThumb3
										{
											OFFSET -2.541588 0.000000 0.088820
											CHANNELS 6 Xposition Yposition Zposition Xrotation Yrotation Zrotation
											JOINT RightHandThumb4
											{
												OFFSET -2.665123 -0.000031 0.093138
												CHANNELS 6 Xposition Yposition Zposition Xrotation Yrotation Zrotation
												End Site
												{
													OFFSET -0.000046 2.666748 0.000000
												}
											}
										}
									}
								}
								JOINT RightHandIndex1
								{
									OFFSET -8.821671 0.199722 3.472445
									CHANNELS 6 Xposition Yposition Zposition Xrotation Yrotation Zrotation
									JOINT RightHandIndex2
									{
										OFFSET -4.225320 0.000000 0.000114
										CHANNELS 6 Xposition Yposition Zposition Xrotation Yrotation Zrotation
										JOINT RightHandIndex3
										{
											OFFSET -2.652321 0.000000 0.092695
											CHANNELS 6 Xposition Yposition Zposition Xrotation Yrotation Zrotation
											JOINT RightHandIndex4
											{
												OFFSET -1.953445 0.000000 0.136656
												CHANNELS 6 Xposition Yposition Zposition Xrotation Yrotation Zrotation
												End Site
												{
													OFFSET 0.000000 1.958221 0.000000
												}
											}
										}
									}
								}
								JOINT RightHandMiddle1
								{
									OFFSET -8.809770 0.500885 1.305458
									CHANNELS 6 Xposition Yposition Zposition Xrotation Yrotation Zrotation
									JOINT RightHandMiddle2
									{
										OFFSET -4.863252 0.000000 0.000132
										CHANNELS 6 Xposition Yposition Zposition Xrotation Yrotation Zrotation
										JOINT RightHandMiddle3
										{
											OFFSET -2.763550 0.000000 0.096584
											CHANNELS 6 Xposition Yposition Zposition Xrotation Yrotation Zrotation
											JOINT RightHandMiddle4
											{
												OFFSET -2.000740 0.000000 0.139965
												CHANNELS 6 Xposition Yposition Zposition Xrotation Yrotation Zrotation
												End Site
												{
													OFFSET 0.000000 2.005630 0.000000
												}
											}
										}
									}
								}
								JOINT RightHandRing1
								{
									OFFSET -8.893830 0.379913 -0.792377
									CHANNELS 6 Xposition Yposition Zposition Xrotation Yrotation Zrotation
									JOINT RightHandRing2
									{
										OFFSET -4.537766 0.000000 0.000122
										CHANNELS 6 Xposition Yposition Zposition Xrotation Yrotation Zrotation
										JOINT RightHandRing3
										{
											OFFSET -2.303116 0.000000 0.080492
											CHANNELS 6 Xposition Yposition Zposition Xrotation Yrotation Zrotation
											JOINT RightHandRing4
											{
												OFFSET -1.918663 0.000000 0.134222
												CHANNELS 6 Xposition Yposition Zposition Xrotation Yrotation Zrotation
												End Site
												{
													OFFSET 0.000000 1.923355 0.000000
												}
											}
										}
									}
								}
								JOINT RightHandPinky1
								{
									OFFSET -8.882493 -0.313034 -2.489574
									CHANNELS 6 Xposition Yposition Zposition Xrotation Yrotation Zrotation
									JOINT RightHandPinky2
									{
										OFFSET -3.047799 0.000000 0.000083
										CHANNELS 6 Xposition Yposition Zposition Xrotation Yrotation Zrotation
										JOINT RightHandPinky3
										{
											OFFSET -1.975693 0.000000 0.069049
											CHANNELS 6 Xposition Yposition Zposition Xrotation Yrotation Zrotation
											JOINT RightHandPinky4
											{
												OFFSET -1.664574 0.000031 0.116447
												CHANNELS 6 Xposition Yposition Zposition Xrotation Yrotation Zrotation
												End Site
												{
													OFFSET 0.000065 1.668640 -0.000006
												}
											}
										}
									}
								}
							}
						}
					}
				}
				JOINT Neck
				{
					OFFSET 0.005814 12.666641 -0.025824
					CHANNELS 6 Xposition Yposition Zposition Xrotation Yrotation Zrotation
					JOINT Head
					{
						OFFSET -0.160309 9.695969 2.441845
						CHANNELS 3 Xrotation Yrotation Zrotation
						JOINT HeadEnd
						{
							OFFSET 0.000000 20.000000 0.000000
							CHANNELS 3 Xrotation Yrotation Zrotation
							End Site
							{
								OFFSET 0.000000 20.000000 0.000000
							}
						}
					}
				}
			}
		}
	}
}
MOTION
Frames: 3
Frame Time: 0.008333
31.838112 99.284744 10.778404 -0.000000 0.000000 -0.000000 8.910010 -6.269980 0.000000 -5.380808 -0.002122 0.045173 -0.070465 -44.094948 -8.350029 -0.000008 -0.000000 0.000000 -0.063891 -39.979397 -7.629656 5.380813 -0.002124 -0.045175 0.000008 -6.262319 12.954720 -0.000000 -0.000000 -0.000000 -0.000000 0.000000 7.999998 0.000000 -0.000000 -0.000000 -8.909992 -6.269996 -0.000003 -4.381759 -0.063668 1.463905 -2.287065 -44.300728 -6.804920 -0.627945 0.026345 0.001837 -2.070183 -40.021629 -7.109918 5.010234 -0.066747 -1.463584 -0.001082 -6.262317 12.954749 -0.000000 0.000003 -0.000000 -0.000671 -0.000407 8.000002 0.000000 0.000000 0.000000 -0.000000 7.000007 -0.000003 6.775886 0.090093 1.521744 -3.359041 0.022157 -0.755645 -3.359039 0.022157 -0.755644 7.006542 14.252012 -0.029062 0.000000 -0.000000 -0.000001 10.707250 -0.004767 0.000005 -0.005387 0.828982 0.796831 27.283131 -0.771783 0.789972 0.000001 0.000013 0.000003 26.675322 -0.754582 0.772362 -0.064449 -0.827764 -0.811247 4.348770 -0.798492 4.282434 -0.000000 0.000000 0.000000 2.512589 -0.536087 0.707453 -0.000000 0.000000 0.000000 2.543121 -0.000000 0.000008 -0.000000 -0.000000 -0.000000 2.666733 0.000015 -0.000010 -0.000000 -0.000000 0.000000 8.821960 0.199722 3.471670 -0.000000 0.000000 -0.000000 4.225327 -0.000015 -0.000266 -0.000000 -0.000000 0.000000 2.652328 -0.000015 -0.092785 -0.000000 0.000000 0.000000 1.953445 -0.000015 -0.136726 0.000000 -0.000001 -0.000000 8.809891 0.500900 1.304684 -0.000000 0.000000 0.000000 4.863251 0.000015 0.000002 -0.000000 -0.000000 0.000000 2.765228 -0.000000 -0.000170 -0.000000 0.000000 0.000000 2.005630 -0.000000 -0.000248 -0.000000 0.000000 0.000000 8.893768 0.379929 -0.793159 -0.000000 0.000000 0.000000 4.537766 0.000000 -0.000282 -0.000000 -0.000000 -0.000000 2.304520 -0.000000 -0.000288 -0.000000 -0.000000 0.000000 1.923355 -0.000000 -0.000360 -0.000000 0.000000 -0.000000 8.882278 -0.313019 -2.490356 -0.000000 0.000000 -0.000000 3.044083 0.000015 -0.000000 -0.000000 0.000000 0.000000 1.974487 -0.000046 0.000000 -0.000000 -0.000000 0.000000 1.666611 -0.000046 0.000000 -0.000000 -0.000000 0.000000 -6.993459 14.258391 -0.029066 0.000000 -0.000000 -0.000001 -10.707274 0.005347 -0.000008 -0.006930 -0.358362 -1.956483 -27.240662 -1.850806 0.341351 0.002593 -0.038193 0.000098 -26.633043 -1.809413 0.369397 -0.065634 0.393642 1.943838 -4.348380 -0.798508 4.282814 0.000000 0.000000 0.000000 -2.512523 -0.536087 0.707674 0.000000 -0.000000 0.000000 -2.541590 0.000000 0.088820 0.000000 0.000000 0.000000 -2.665119 -0.000031 0.093136 0.000000 0.000000 0.000000 -8.821672 0.199738 3.472445 0.000000 0.000000 0.000000 -4.225314 0.000000 0.000112 -0.000000 -0.000000 -0.000000 -2.652321 0.000000 0.092693 -0.000000 0.000000 0.000000 -1.953455 0.000015 0.136657 -0.000000 -0.000000 0.000000 -8.809775 0.500885 1.305458 0.000000 0.000000 0.000000 -4.863250 0.000015 0.000132 -0.000000 -0.000000 -0.000000 -2.763550 0.000000 0.096586 -0.000000 0.000001 -0.000000 -2.000744 0.000015 0.139969 0.000000 0.000000 0.000000 -8.893834 0.379929 -0.792377 0.000000 0.000000 0.000000 -4.537765 0.000000 0.000122 -0.000000 -0.000000 0.000000 -2.303114 -0.000015 0.080490 0.000000 0.000000 0.000000 -1.918671 -0.000015 0.134222 0.000000 0.000000 0.000000 -8.882498 -0.313034 -2.489574 0.000000 0.000000 0.000000 -3.047799 0.000015 0.000083 -0.000000 -0.000000 0.000000 -1.975700 -0.000015 0.069050 -0.000000 -0.000000 -0.000000 -1.664574 0.000031 0.116447 -0.000000 -0.000000 -0.000000 0.005815 12.666648 -0.025823 -7.125461 0.031343 -0.475651 7.067067 0.027997 0.462751 -0.000000 0.000000 -0.000000 
63.507790 98.602280 20.263107 2.130429 177.300755 0.114096 8.910004 -6.269987 -0.000002 -0.158874 0.076322 0.037276 -0.070465 -44.094952 -8.350027 0.089164 -0.008007 -0.001523 -0.063888 -39.979408 -7.629659 -0.022650 -0.132697 -0.018433 0.000008 -6.262319 12.954726 0.044281 -0.007556 -0.007845 -0.000000 0.000000 7.999996 0.000000 -0.000000 -0.000000 -8.910001 -6.269985 -0.000001 -0.066046 -0.001423 0.019150 -2.287062 -44.300735 -6.804919 -0.042954 -0.002839 0.004244 -2.070197 -40.021633 -7.109917 0.035910 -0.049698 -0.028170 -0.001091 -6.262316 12.954756 0.019080 0.003280 0.000264 -0.000675 -0.000407 8.000002 -0.000000 -0.000000 0.000000 -0.000010 7.000008 -0.000004 0.016621 -0.007702 0.021131 -0.013064 -0.015400 0.004368 -0.012481 -0.016323 0.001810 7.006535 14.251973 -0.029059 -4.245846 11.603115 9.028750 10.707251 -0.004786 0.000002 -14.582681 1.601014 -3.590011 27.283134 -0.771758 0.789980 0.142545 -3.268910 0.694258 26.675303 -0.754549 0.772365 2.048276 11.046139 -15.538561 4.348763 -0.798473 4.282438 19.250849 -8.796946 -32.626960 2.512591 -0.536117 0.707451 0.000352 0.000580 0.000108 2.543117 -0.000007 0.000012 -0.000176 -0.000294 -0.000059 2.666744 0.000016 -0.000012 0.000000 -0.000000 0.000002 8.821959 0.199755 3.471680 -1.872371 9.240845 13.093323 4.225327 -0.000004 -0.000266 0.000002 0.000003 0.000098 2.652342 0.000002 -0.092792 0.000001 0.000003 0.000001 1.953446 -0.000003 -0.136722 0.000001 -0.000004 -0.000001 8.809893 0.500942 1.304690 -2.533308 12.738721 10.983865 4.863245 -0.000017 -0.000005 -0.000001 0.000003 -0.000052 2.765258 -0.000002 -0.000176 -0.000002 0.000000 0.000000 2.005632 0.000016 -0.000248 0.000000 -0.000001 -0.000001 8.893763 0.379950 -0.793150 -2.655426 18.383560 6.067009 4.537772 0.000020 -0.000282 -0.000001 0.000001 -0.000167 2.304523 0.000009 -0.000290 -0.000000 0.000003 0.000078 1.923368 0.000032 -0.000364 -0.000001 0.000002 0.000001 8.882280 -0.313002 -2.490345 -2.428420 23.653937 2.919525 3.044112 0.000004 0.000002 -1.257386 0.534747 -3.143982 1.974488 -0.000031 -0.000001 0.011038 -0.004426 0.031924 1.666627 -0.000045 0.000004 -0.000002 0.000000 -0.000000 -6.993453 14.258407 -0.029064 -0.872707 0.328047 -13.350129 -10.707266 0.005328 -0.000014 -43.330327 -9.550365 2.256351 -27.240664 -1.850783 0.341346 -0.218562 4.104914 -1.158667 -26.633045 -1.809428 0.369401 14.504308 -10.861248 4.388096 -4.348381 -0.798515 4.282812 21.812940 5.208328 42.524713 -2.512534 -0.536086 0.707679 -0.854936 -13.046871 2.551284 -2.541585 -0.000005 0.088818 -0.854953 -13.046844 2.551306 -2.665133 -0.000062 0.093138 0.000000 -0.000002 -0.000003 -8.821682 0.199716 3.472448 1.136434 -3.429077 13.219888 -4.225321 0.000008 0.000119 -0.135737 2.278499 16.190019 -2.652320 -0.000005 0.092700 -0.135748 2.278498 16.190077 -1.953428 0.000045 0.136651 -0.000000 0.000002 -0.000004 -8.809784 0.500865 1.305457 2.367817 -13.830981 10.109172 -4.863256 0.000018 0.000114 -0.007950 1.415245 10.015604 -2.763567 0.000034 0.096594 -0.007923 1.415259 10.015505 -2.000726 0.000015 0.139977 -0.000001 0.000001 -0.000001 -8.893841 0.379912 -0.792365 1.116810 -27.692655 4.369609 -4.537761 0.000013 0.000124 0.001562 0.019367 0.137308 -2.303120 -0.000005 0.080490 0.001573 0.019357 0.137315 -1.918691 -0.000015 0.134241 -0.000000 -0.000000 -0.000000 -8.882496 -0.313064 -2.489573 -11.519622 -37.509794 -15.994665 -3.047801 0.000012 0.000072 -1.215346 -0.484528 3.182711 -1.975687 -0.000026 0.069047 0.009891 0.003599 -0.030178 -1.664582 0.000015 0.116451 0.000004 -0.000000 -0.000001 0.005820 12.666638 -0.025821 -0.033765 -0.005103 0.040988 0.032084 0.050239 -0.000217 0.000000 0.000000 0.000000 
63.558037 98.608978 20.371494 2.025003 177.399793 0.138669 8.910008 -6.269994 -0.000001 -0.410587 0.192131 0.091965 -0.070475 -44.094963 -8.350032 0.189932 -0.022039 -0.004784 -0.063889 -39.979401 -7.629656 -0.035505 -0.315971 -0.071542 0.000004 -6.262319 12.954726 0.109280 -0.018675 -0.019367 -0.000008 0.000000 7.999996 -0.000000 -0.000000 -0.000000 -8.909976 -6.269992 -0.000002 -0.224107 -0.003941 0.042671 -2.287082 -44.300732 -6.804923 -0.054774 -0.011340 0.009769 -2.070186 -40.021629 -7.109915 0.072188 -0.116322 -0.073288 -0.001076 -6.262317 12.954751 0.043200 0.007413 0.000578 -0.000656 -0.000407 8.000000 0.000000 0.000000 -0.000000 0.000016 7.000007 -0.000002 0.061971 -0.028581 0.038688 -0.044555 -0.051911 0.008208 -0.041983 -0.055617 -0.003240 7.006526 14.252007 -0.029062 -4.262045 11.611170 9.100391 10.707256 -0.004776 0.000004 -14.610714 1.667886 -3.521298 27.283127 -0.771757 0.789972 0.143773 -3.291324 0.700180 26.675308 -0.754585 0.772367 2.002693 11.189792 -15.473331 4.348767 -0.798473 4.282430 19.349784 -8.823557 -32.885660 2.512605 -0.536101 0.707450 0.000000 -0.000028 0.000001 2.543148 -0.000002 0.000008 0.000000 -0.000000 0.000002 2.666729 0.000014 -0.000009 -0.000001 -0.000000 0.000002 8.821962 0.199745 3.471670 -1.825192 9.100601 13.025966 4.225322 -0.000001 -0.000269 -0.000001 0.000000 -0.000059 2.652341 0.000016 -0.092790 0.000005 -0.000000 0.000111 1.953443 -0.000002 -0.136731 -0.000000 -0.000003 0.000000 8.809895 0.500926 1.304685 -2.485181 12.635993 10.852137 4.863237 -0.000021 -0.000004 -0.000005 0.000001 -0.000213 2.765237 0.000002 -0.000176 0.000001 0.000000 0.000051 2.005630 0.000015 -0.000252 0.000003 -0.000002 -0.000000 8.893770 0.379951 -0.793159 -2.600941 18.281433 5.930516 4.537743 0.000014 -0.000286 -0.000031 -0.000002 -0.000113 2.304528 -0.000004 -0.000295 -0.000003 0.000001 0.000046 1.923352 -0.000013 -0.000365 0.000002 -0.000003 0.000001 8.882260 -0.312985 -2.490357 -2.358719 23.577005 2.701649 3.044126 0.000010 0.000005 -1.238585 0.526148 -3.096484 1.974501 -0.000028 0.000002 0.002688 -0.001082 0.007786 1.666618 -0.000030 0.000005 -0.000002 -0.000003 -0.000003 -6.993458 14.258430 -0.029064 -0.861776 0.332219 -13.354968 -10.707270 0.005338 -0.000014 -43.380222 -9.751585 2.203374 -27.240667 -1.850778 0.341349 -0.218911 4.121399 -1.165117 -26.633053 -1.809402 0.369402 14.615783 -10.985097 4.466087 -4.348387 -0.798531 4.282807 21.790802 5.151593 42.508529 -2.512516 -0.536054 0.707680 -0.857283 -13.098292 2.561194 -2.541581 -0.000011 0.088822 -0.857173 -13.098443 2.561187 -2.665118 -0.000029 0.093137 -0.000000 -0.000000 -0.000003 -8.821672 0.199707 3.472429 1.169608 -3.468443 13.447798 -4.225319 -0.000025 0.000119 -0.143779 2.317474 16.471642 -2.652327 0.000015 0.092700 -0.143755 2.317476 16.471643 -1.953437 0.000030 0.136666 0.000001 -0.000002 -0.000004 -8.809773 0.500881 1.305453 2.421286 -13.815845 10.311481 -4.863254 0.000006 0.000139 -0.011348 1.450781 10.267909 -2.763542 0.000044 0.096570 -0.011338 1.450782 10.267911 -2.000746 0.000015 0.139976 0.000000 0.000001 -0.000001 -8.893831 0.379916 -0.792384 1.207760 -27.672206 4.561184 -4.537755 0.000010 0.000129 0.004015 0.050371 0.356815 -2.303115 0.000007 0.080457 0.003947 0.050366 0.357100 -1.918666 -0.000000 0.134222 0.000003 -0.000004 -0.000003 -8.882503 -0.313058 -2.489582 -11.511320 -37.462905 -15.958732 -3.047799 0.000006 0.000090 -1.192821 -0.474854 3.123145 -1.975698 -0.000016 0.069052 0.000003 -0.000004 -0.000001 -1.664572 0.000036 0.116457 -0.000021 0.000003 0.000006 0.005811 12.666645 -0.025828 -0.112934 -0.001878 0.080599 0.078261 0.075576 0.007685 0.000000 0.000000 0.000000 
